<svg id="Capa_1" data-name="Capa 1" xmlns="http://www.w3.org/2000/svg" viewBox="0 0 512 408"><defs><style>.cls-1{fill:#0091ea;}.cls-2{fill:#fff;}</style></defs><title>BSB_Logo</title><path class="cls-1" d="M56.48,53.32C55.51,25.58,77.13,0,106.34,0H405.7c29.21,0,50.82,25.58,49.86,53.32-.93,26.65.27,61.17,9,89.31S487.93,188.71,512,191v26c-24.07,2.29-38.77,20.14-47.48,48.37s-9.89,62.66-9,89.31c1,27.74-20.65,53.32-49.86,53.32H106.34c-29.21,0-50.82-25.58-49.86-53.32.93-26.65-.28-61.16-9-89.31S24.07,219.29,0,217V191c24.07-2.29,38.8-20.14,47.52-48.37S57.41,80,56.48,53.32Z"/><path class="cls-2" d="M134.14,89.22q26.76,0,39.05,12.44t12.28,38.26v7.87q0,33.71-22.36,44.09v.62q25.81,10.09,25.82,46.92v18q0,25.51-13.38,38.89t-39.2,13.38H81.87V89.22Zm-.94,31.49H116.51V179h13.54q10.39,0,15.58-5.35t5.2-18V143.38Q150.83,120.72,133.2,120.71Zm-1.26,89.74H116.51v67.71h19.84q9.12,0,13.54-4.89t4.4-16.84V237.22q0-15.12-5.19-20.94T131.94,210.45Z"/><path class="cls-2" d="M205.3,142.12q0-26.76,12.91-41.09T256.32,86.7q25.19,0,38.1,14.33t12.91,41.09v6.93H274.58v-9.13q0-21.73-17.32-21.73t-17.32,21.73a42.09,42.09,0,0,0,6.46,22.67q6.45,10.4,23.14,25.19,21.4,18.9,29.76,34.32a71.69,71.69,0,0,1,8.34,34.64q0,26.77-13.22,41.1T256,312.16q-25.2,0-38.42-14.32t-13.22-41.1V243.2h32.75V259q0,21.42,17.95,21.41T273,259a42.2,42.2,0,0,0-6.45-22.68q-6.46-10.38-23.14-25.19Q222,192.2,213.65,176.76T205.3,142.12Z"/><path class="cls-2" d="M379.75,89.22q26.76,0,39.05,12.44t12.28,38.26v7.87q0,33.71-22.36,44.09v.62q25.81,10.09,25.82,46.92v18q0,25.51-13.38,38.89T382,309.64H327.48V89.22Zm-.94,31.49H362.12V179h13.54q10.38,0,15.58-5.35t5.2-18V143.38Q396.44,120.72,378.81,120.71Zm-1.26,89.74H362.12v67.71H382q9.14,0,13.55-4.89t4.4-16.84V237.22q0-15.12-5.19-20.94T377.55,210.45Z"/></svg>