<svg id="Capa_1" data-name="Capa 1" xmlns="http://www.w3.org/2000/svg" xmlns:xlink="http://www.w3.org/1999/xlink" viewBox="0 0 512 408"><defs><style>.cls-1{fill:url(#Degradado_sin_nombre_7);}.cls-2{fill:#fff;}</style><linearGradient id="Degradado_sin_nombre_7" x1="51.55" y1="368.3" x2="498.95" y2="13.16" gradientTransform="matrix(1, 0, 0, -1, 0, 410)" gradientUnits="userSpaceOnUse"><stop offset="0" stop-color="#40c4ff"/><stop offset="1" stop-color="#0091ea"/></linearGradient></defs><title>BSB_Logo</title><path class="cls-1" d="M56.48,53.32C55.51,25.58,77.13,0,106.34,0H405.7c29.21,0,50.82,25.58,49.86,53.32-.93,26.65.27,61.17,9,89.31S487.93,188.71,512,191v26c-24.07,2.29-38.77,20.14-47.48,48.37s-9.89,62.66-9,89.31c1,27.74-20.65,53.32-49.86,53.32H106.34c-29.21,0-50.82-25.58-49.86-53.32.93-26.65-.28-61.16-9-89.31S24.07,219.29,0,217V191c24.07-2.29,38.8-20.14,47.52-48.37S57.41,80,56.48,53.32Z"/><path class="cls-2" d="M131.94,93.79q26.76,0,39,12.44t12.28,38.25v7.88q0,33.69-22.35,44.08v.63q25.82,10.08,25.82,46.92v17.95q0,25.5-13.39,38.89t-39.2,13.38H79.66V93.79ZM131,125.28H114.3v58.25h13.54q10.4,0,15.59-5.35t5.2-18V148Q148.63,125.27,131,125.28ZM129.73,215H114.3v67.7h19.84q9.13,0,13.54-4.88T152.09,261v-19.2q0-15.12-5.2-20.94T129.73,215Z"/><path class="cls-2" d="M203.1,146.69q0-26.76,12.91-41.09t38.1-14.33q25.18,0,38.1,14.33t12.91,41.09v6.93H272.37v-9.14q0-21.72-17.31-21.72t-17.32,21.72a42.2,42.2,0,0,0,6.45,22.68q6.45,10.4,23.15,25.19,21.41,18.89,29.75,34.32a71.7,71.7,0,0,1,8.35,34.64q0,26.78-13.23,41.09T253.8,316.73q-25.2,0-38.42-14.33t-13.23-41.09V247.77H234.9v15.74q0,21.42,17.95,21.42t18-21.42a42.2,42.2,0,0,0-6.46-22.67q-6.45-10.4-23.14-25.19-21.42-18.89-29.76-34.32A71.67,71.67,0,0,1,203.1,146.69Z"/><path class="cls-2" d="M377.54,93.79q26.77,0,39,12.44t12.28,38.25v7.88q0,33.69-22.36,44.08v.63q25.83,10.08,25.83,46.92v17.95q0,25.5-13.39,38.89t-39.2,13.38H325.27V93.79Zm-.94,31.49H359.91v58.25h13.54q10.4,0,15.59-5.35t5.19-18V148Q394.23,125.27,376.6,125.28ZM375.34,215H359.91v67.7h19.84q9.13,0,13.54-4.88T397.7,261v-19.2q0-15.12-5.2-20.94T375.34,215Z"/></svg>