<svg xmlns="http://www.w3.org/2000/svg" viewBox="0 0 1018.12 276.2"><defs><style>.cls-1{fill:#071a35;}.cls-2{fill:#bc9061;}</style></defs><g id="Capa_2" data-name="Capa 2"><g id="Capa_1-2" data-name="Capa 1"><path class="cls-1" d="M0,190.55H24.59l20,32.51,20-32.51H89.25v84H66.1V226.29L44.63,259.16h-.48L22.79,226.53v48H0Z"/><path class="cls-1" d="M102.33,252.09V209.62h22.79v35.15c0,7.08,3.72,10.92,9.24,10.92s9.48-3.84,9.48-10.92V209.62h22.79v64.9H143.84v-8.88C139.64,271,133.64,276,124.4,276,110.61,276,102.33,266.84,102.33,252.09Z"/><path class="cls-1" d="M178.86,209.62h22.8v9.12c4.2-5.4,10.19-10.56,19.43-10.56,13.8,0,22.07,9.12,22.07,23.87v42.47H220.37V239.37c0-7.08-3.72-10.92-9.12-10.92s-9.59,3.84-9.59,10.92v35.15h-22.8Z"/><path class="cls-1" d="M252.52,242.37v-.24c0-21.11,13.2-33.95,28.55-33.95,9.84,0,15.6,4.44,19.91,9.36V187h22.8v87.57H301v-8.64c-4.43,5.4-10.07,10.08-19.79,10.08C265.84,276,252.52,263.12,252.52,242.37Zm48.82-.24v-.24c0-8.52-5.87-14.64-13.19-14.64s-13.32,6-13.32,14.64v.24c0,8.64,6,14.76,13.32,14.76S301.34,250.77,301.34,242.13Z"/><path class="cls-1" d="M333.37,242.37v-.24c0-18.47,15.12-33.95,36-33.95s35.75,15.24,35.75,33.71v.24c0,18.47-15.11,33.95-36,33.95S333.37,260.84,333.37,242.37Zm49.55,0v-.24c0-7.92-5.76-14.64-13.8-14.64-8.27,0-13.55,6.6-13.55,14.4v.24c0,7.92,5.76,14.64,13.79,14.64C377.64,256.77,382.92,250.17,382.92,242.37Z"/><path class="cls-1" d="M446.38,232.77v-.24c0-24.47,18.83-43.66,44.26-43.66,17.16,0,28.2,7.19,35.63,17.51l-17.51,13.56c-4.8-6-10.32-9.84-18.36-9.84-11.75,0-20,10-20,22.19v.24c0,12.6,8.28,22.44,20,22.44,8.76,0,13.92-4.08,19-10.2l17.51,12.47c-7.91,10.92-18.59,19-37.19,19C465.69,276.2,446.38,257.85,446.38,232.77Z"/><path class="cls-1" d="M531.67,242.37v-.24c0-18.95,13.56-33.95,32.75-33.95,22.44,0,32.75,16.44,32.75,35.51,0,1.44,0,3.12-.12,4.68H553.62c1.8,7.08,7,10.67,14,10.67,5.4,0,9.72-2,14.4-6.59l12.59,10.43c-6.23,7.92-15.23,13.2-28.19,13.2C546.07,276.08,531.67,262.52,531.67,242.37Zm44.15-5.64c-.84-7.2-5-11.75-11.28-11.75-6,0-10.08,4.67-11.28,11.75Z"/><path class="cls-1" d="M606.89,209.62h22.79V222.7c3.72-8.88,9.72-14.64,20.52-14.16v24h-1.92c-11.88,0-18.6,6.84-18.6,21.84v20.15H606.89Z"/><path class="cls-1" d="M655,255.93v-.24c0-13.44,10.2-20.4,25.43-20.4a49.79,49.79,0,0,1,15.6,2.52v-1.08c0-6.72-4.2-10.56-13-10.56a45.71,45.71,0,0,0-17.87,3.6l-4.68-16.07a65.2,65.2,0,0,1,26.27-5c11.64,0,19.56,2.76,24.72,7.92,4.91,4.8,7,11.51,7,20.63v37.31H695.9V267.8c-4.44,4.92-10.56,8.16-19.07,8.16C664.47,276,655,268.88,655,255.93ZM696.26,251v-3a23.89,23.89,0,0,0-8.88-1.68c-6.59,0-10.43,3.24-10.43,8v.24c0,4.43,3.35,7.07,8,7.07C691.58,261.68,696.26,257.49,696.26,251Zm-5.76-69.34,21.24,6.84L694.1,203.86H678Z"/><path class="cls-1" d="M730.09,209.62h22.79v8.88c4.2-5.4,10.2-10.32,19.32-10.32,8.63,0,15.23,3.84,18.71,10.56,5.64-6.48,12.24-10.56,21.71-10.56,13.8,0,22.2,8.64,22.2,23.75v42.59H812V239.25c0-7.08-3.47-10.8-8.87-10.8s-9.36,3.72-9.36,10.8v35.27H771V239.25c0-7.08-3.48-10.8-8.88-10.8s-9.24,3.72-9.24,10.8v35.27H730.09Z"/><path class="cls-1" d="M846.57,187h23.76v16.79H846.57Zm.48,22.67h22.8v64.9h-22.8Z"/><path class="cls-1" d="M879.92,242.37v-.24c0-18.35,14.28-33.83,34.79-33.83,13.32,0,22.19,5.76,27.71,14.52L927,234.33c-3.12-4.32-6.6-6.84-12.12-6.84-7.32,0-12.72,6.48-12.72,14.4v.24c0,8.4,5.28,14.76,13,14.76,5.4,0,8.88-2.52,12.48-6.72l15.23,11c-6,8.88-14.63,14.88-28.91,14.88A33.49,33.49,0,0,1,879.92,242.37Z"/><path class="cls-1" d="M946.38,242.37v-.24c0-18.47,15.12-33.95,36-33.95s35.75,15.24,35.75,33.71v.24c0,18.47-15.12,33.95-36,33.95S946.38,260.84,946.38,242.37Zm49.54,0v-.24c0-7.92-5.75-14.64-13.79-14.64-8.28,0-13.56,6.6-13.56,14.4v.24c0,7.92,5.76,14.64,13.8,14.64C990.65,256.77,995.92,250.17,995.92,242.37Z"/><rect class="cls-1" x="518.39" y="27.29" width="113.53" height="113.53" transform="translate(109.02 431.32) rotate(-45)"/><path class="cls-1" d="M575.16,168.12,491.1,84.06,575.16,0l84.06,84.06Zm-76.5-84.06,76.5,76.5,76.5-76.5-76.5-76.5Z"/><rect class="cls-1" x="379.24" y="27.29" width="113.53" height="113.53" transform="translate(68.26 332.92) rotate(-45)"/><path class="cls-1" d="M436,168.12,351.94,84.06,436,0l84.06,84.06ZM359.5,84.06l76.5,76.5,76.5-76.5L436,7.56Z"/><rect class="cls-2" x="447.79" y="27.29" width="113.53" height="113.53" transform="translate(88.34 381.4) rotate(-45)"/><path class="cls-2" d="M504.56,168.12,420.5,84.06,504.56,0l84.05,84.06Zm-76.5-84.06,76.5,76.5,76.5-76.5-76.5-76.5Z"/></g></g></svg>