<svg xmlns="http://www.w3.org/2000/svg" viewBox="0 0 1381.51 168.12"><defs><style>.cls-1{fill:#071a35;}.cls-2{fill:#bc9061;}</style></defs><g id="Capa_2" data-name="Capa 2"><g id="Capa_1-2" data-name="Capa 1"><path class="cls-1" d="M363.39,45.67H388l20,32.51,20-32.51h24.6v84H429.49V81.42L408,114.29h-.48L386.19,81.66v48h-22.8Z"/><path class="cls-1" d="M465.72,107.21V64.74h22.79V99.89c0,7.08,3.72,10.92,9.24,10.92s9.48-3.84,9.48-10.92V64.74H530v64.9H507.23v-8.87c-4.2,5.4-10.2,10.31-19.44,10.31C474,131.08,465.72,122,465.72,107.21Z"/><path class="cls-1" d="M542.26,64.74h22.79v9.12c4.2-5.4,10.2-10.56,19.43-10.56,13.8,0,22.08,9.12,22.08,23.88v42.46h-22.8V94.5c0-7.08-3.71-10.92-9.11-10.92s-9.6,3.84-9.6,10.92v35.14H542.26Z"/><path class="cls-1" d="M615.91,97.49v-.24c0-21.11,13.2-33.95,28.55-33.95,9.84,0,15.6,4.44,19.92,9.36V42.07h22.79v87.57H664.38V121c-4.44,5.4-10.08,10.07-19.8,10.07C629.23,131.08,615.91,118.25,615.91,97.49Zm48.83-.24V97c0-8.51-5.88-14.63-13.2-14.63s-13.31,6-13.31,14.63v.24c0,8.64,6,14.76,13.31,14.76S664.74,105.89,664.74,97.25Z"/><path class="cls-1" d="M696.77,97.49v-.24c0-18.47,15.11-33.95,36-33.95S768.51,78.54,768.51,97v.24c0,18.48-15.12,33.95-36,33.95S696.77,116,696.77,97.49Zm49.54,0v-.24c0-7.91-5.76-14.63-13.79-14.63C724.24,82.62,719,89.22,719,97v.24c0,7.92,5.76,14.64,13.8,14.64C741,111.89,746.31,105.29,746.31,97.49Z"/><path class="cls-1" d="M809.77,87.9v-.24C809.77,63.18,828.6,44,854,44c17.15,0,28.19,7.2,35.63,17.52L872.15,75.06c-4.8-6-10.32-9.84-18.35-9.84-11.76,0-20,10-20,22.2v.24c0,12.59,8.28,22.43,20,22.43,8.75,0,13.91-4.08,19-10.2l17.52,12.48c-7.92,10.92-18.6,18.95-37.19,18.95C829.08,131.32,809.77,113,809.77,87.9Z"/><path class="cls-1" d="M895.06,97.49v-.24c0-19,13.56-33.95,32.75-33.95,22.44,0,32.75,16.44,32.75,35.51,0,1.44,0,3.12-.12,4.68H917c1.8,7.08,7,10.68,14,10.68,5.4,0,9.72-2,14.4-6.6L958.05,118c-6.24,7.92-15.24,13.19-28.2,13.19C909.46,131.2,895.06,117.65,895.06,97.49Zm44.15-5.63c-.84-7.2-5-11.76-11.28-11.76-6,0-10.07,4.68-11.27,11.76Z"/><path class="cls-1" d="M970.28,64.74h22.79V77.82c3.72-8.88,9.72-14.64,20.52-14.16v24h-1.92c-11.88,0-18.6,6.84-18.6,21.83v20.15H970.28Z"/><path class="cls-1" d="M1018.38,111.05v-.24c0-13.44,10.2-20.39,25.44-20.39a49.72,49.72,0,0,1,15.59,2.52V91.86c0-6.72-4.2-10.56-13-10.56a45.72,45.72,0,0,0-17.88,3.6l-4.68-16.08a65.22,65.22,0,0,1,26.28-5c11.63,0,19.55,2.76,24.71,7.92,4.92,4.8,7,11.52,7,20.64v37.3h-22.56v-6.71c-4.44,4.92-10.55,8.15-19.07,8.15C1027.86,131.08,1018.38,124,1018.38,111.05Zm41.27-4.92v-3a23.87,23.87,0,0,0-8.87-1.68c-6.6,0-10.44,3.24-10.44,8v.24c0,4.44,3.36,7.08,8,7.08C1055,116.81,1059.65,112.61,1059.65,106.13Zm-5.76-69.34,21.24,6.84L1057.49,59h-16.07Z"/><path class="cls-1" d="M1093.48,64.74h22.79v8.88c4.2-5.4,10.2-10.32,19.32-10.32,8.64,0,15.23,3.84,18.71,10.56,5.64-6.48,12.24-10.56,21.72-10.56,13.79,0,22.19,8.64,22.19,23.76v42.58h-22.79V94.38c0-7.08-3.48-10.8-8.88-10.8s-9.36,3.72-9.36,10.8v35.26h-22.79V94.38c0-7.08-3.48-10.8-8.88-10.8s-9.24,3.72-9.24,10.8v35.26h-22.79Z"/><path class="cls-1" d="M1210,42.07h23.75v16.8H1210Zm.47,22.67h22.8v64.9h-22.8Z"/><path class="cls-1" d="M1243.31,97.49v-.24c0-18.35,14.28-33.83,34.79-33.83,13.32,0,22.2,5.76,27.71,14.52l-15.47,11.52c-3.12-4.32-6.6-6.84-12.12-6.84-7.31,0-12.71,6.48-12.71,14.39v.24c0,8.4,5.28,14.76,13,14.76,5.4,0,8.88-2.52,12.48-6.72l15.23,11c-6,8.88-14.63,14.87-28.91,14.87A33.49,33.49,0,0,1,1243.31,97.49Z"/><path class="cls-1" d="M1309.77,97.49v-.24c0-18.47,15.12-33.95,36-33.95s35.75,15.24,35.75,33.71v.24c0,18.48-15.11,33.95-36,33.95S1309.77,116,1309.77,97.49Zm49.55,0v-.24c0-7.91-5.76-14.63-13.8-14.63-8.28,0-13.55,6.6-13.55,14.39v.24c0,7.92,5.75,14.64,13.79,14.64C1354,111.89,1359.32,105.29,1359.32,97.49Z"/><rect class="cls-1" x="166.45" y="27.29" width="113.53" height="113.53" transform="translate(5.94 182.46) rotate(-45)"/><path class="cls-1" d="M223.21,168.12,139.16,84.06,223.21,0l84.06,84.06ZM146.72,84.06l76.49,76.5,76.5-76.5-76.5-76.5Z"/><rect class="cls-1" x="27.29" y="27.29" width="113.53" height="113.53" transform="translate(-34.82 84.06) rotate(-45)"/><path class="cls-1" d="M84.06,168.12,0,84.06,84.06,0l84.05,84.06ZM7.56,84.06l76.5,76.5,76.5-76.5L84.06,7.56Z"/><rect class="cls-2" x="95.85" y="27.29" width="113.53" height="113.53" transform="translate(-14.74 132.53) rotate(-45)"/><path class="cls-2" d="M152.61,168.12,68.56,84.06,152.61,0l84.06,84.06ZM76.11,84.06l76.5,76.5,76.5-76.5-76.5-76.5Z"/></g></g></svg>