<svg xmlns="http://www.w3.org/2000/svg" viewBox="0 0 307.27 168.12"><defs><style>.cls-1{fill:#071a35;}.cls-2{fill:#bc9061;}</style></defs><g id="Capa_2" data-name="Capa 2"><g id="Capa_1-2" data-name="Capa 1"><rect class="cls-1" x="166.45" y="27.29" width="113.53" height="113.53" transform="translate(5.94 182.46) rotate(-45)"/><path class="cls-1" d="M223.21,168.12,139.16,84.06,223.21,0l84.06,84.06ZM146.72,84.06l76.49,76.5,76.5-76.5-76.5-76.5Z"/><rect class="cls-1" x="27.29" y="27.29" width="113.53" height="113.53" transform="translate(-34.82 84.06) rotate(-45)"/><path class="cls-1" d="M84.06,168.12,0,84.06,84.06,0l84.05,84.06ZM7.56,84.06l76.5,76.5,76.5-76.5L84.06,7.56Z"/><rect class="cls-2" x="95.85" y="27.29" width="113.53" height="113.53" transform="translate(-14.74 132.53) rotate(-45)"/><path class="cls-2" d="M152.61,168.12,68.56,84.06,152.61,0l84.06,84.06ZM76.11,84.06l76.5,76.5,76.5-76.5-76.5-76.5Z"/></g></g></svg>