<svg id="Capa_1" data-name="Capa 1" xmlns="http://www.w3.org/2000/svg" viewBox="0 0 245.33 250.67"><defs><style>.cls-1{fill:#009954;}</style></defs><title>Sucardin</title><g id="surface1"><path class="cls-1" d="M109.67,163.94a66.56,66.56,0,0,1-8.79,5.54,5.28,5.28,0,0,0-.53.27,41.7,41.7,0,0,1-18.73,4.92c-14.68,0-27.74-10-33.74-15.42a69.51,69.51,0,0,1,16.34-11.12C79.09,159.2,97.46,162.82,109.67,163.94Z"/><path class="cls-1" d="M136.5,176.75c-3,10.26-9.74,18.83-13.84,23.37-4.1-4.52-10.8-13.07-13.83-23.37a83,83,0,0,0,13.84-10.3A82.83,82.83,0,0,0,136.5,176.75Z"/><path class="cls-1" d="M197.46,159.26c-6,5.42-19,15.41-33.75,15.41-11,0-21.11-5.63-28-10.73,12.21-1.13,30.55-4.75,45.41-15.81A70.15,70.15,0,0,1,197.46,159.26Z"/><path class="cls-1" d="M169.46,76.89a83.07,83.07,0,0,0-15.33,6.43,83.05,83.05,0,0,0-6.3-15.4,108.54,108.54,0,0,1,16.47-9.19A108.25,108.25,0,0,1,169.46,76.89Z"/><path class="cls-1" d="M199.6,82.33c-.29,10.64-2.75,36.53-19,52.81-13.29,13.29-33.08,17.36-45.67,18.57,9.08-10.85,21.88-30.09,21.88-52.46a59.92,59.92,0,0,0-.47-7.38C171.82,84.29,190.85,82.57,199.6,82.33Z"/><path class="cls-1" d="M146.56,101.25c0,23-16.57,43-23.89,50.79-7.33-7.76-23.9-27.84-23.9-50.79s16.58-43,23.9-50.79c6.38,6.73,19.74,22.77,23.1,42h0A51.13,51.13,0,0,1,146.56,101.25Z"/><path class="cls-1" d="M110.45,153.73c-12.57-1.2-32.35-5.26-45.69-18.59C48.53,118.91,46,93,45.74,82.32c8.74.23,27.73,1.94,43.28,11.55a59.93,59.93,0,0,0-.46,7.38C88.56,123.63,101.36,142.88,110.45,153.73Z"/><path class="cls-1" d="M97.5,67.92a83,83,0,0,0-6.29,15.4,83.15,83.15,0,0,0-15.34-6.43A108.25,108.25,0,0,1,81,58.73,107.59,107.59,0,0,1,97.5,67.92Z"/></g></svg>