<svg id="Capa_1" data-name="Capa 1" xmlns="http://www.w3.org/2000/svg" viewBox="0 0 504 251.56"><defs><style>.cls-1{fill:#009954;}</style></defs><title>Sucardin</title><g id="surface1"><path class="cls-1" d="M124,158a54.43,54.43,0,0,1-7.33,4.62,3.68,3.68,0,0,0-.44.23,34.9,34.9,0,0,1-15.63,4.1c-12.26,0-23.15-8.34-28.17-12.87a58.25,58.25,0,0,1,13.65-9.28C98.52,154.05,113.85,157.06,124,158Z"/><path class="cls-1" d="M146.44,168.69c-2.53,8.56-8.13,15.72-11.55,19.51-3.43-3.78-9-10.91-11.55-19.51a68.87,68.87,0,0,0,11.55-8.6A68.87,68.87,0,0,0,146.44,168.69Z"/><path class="cls-1" d="M197.31,154.09c-5,4.53-15.85,12.86-28.17,12.86-9.19,0-17.61-4.69-23.37-8.95,10.19-.94,25.5-4,37.9-13.2A58.8,58.8,0,0,1,197.31,154.09Z"/><path class="cls-1" d="M174,85.34a69.73,69.73,0,0,0-12.8,5.37,69.56,69.56,0,0,0-5.25-12.85,90.79,90.79,0,0,1,13.74-7.67A90,90,0,0,1,174,85.34Z"/><path class="cls-1" d="M199.1,89.89c-.24,8.88-2.29,30.48-15.88,44.07-11.09,11.09-27.61,14.49-38.11,15.5,7.57-9.05,18.25-25.12,18.25-43.78a52.11,52.11,0,0,0-.38-6.16C175.92,91.52,191.8,90.09,199.1,89.89Z"/><path class="cls-1" d="M154.83,105.68c0,19.15-13.82,35.91-19.94,42.39-6.11-6.48-19.94-23.24-19.94-42.39s13.84-35.93,20-42.39c5.32,5.61,16.47,19,19.28,35h0A42.45,42.45,0,0,1,154.83,105.68Z"/><path class="cls-1" d="M124.69,149.47c-10.49-1-27-4.38-38.13-15.51C73,120.41,70.94,98.77,70.69,89.88c7.29.19,23.15,1.62,36.12,9.64a50.06,50.06,0,0,0-.38,6.16C106.43,124.36,117.11,140.43,124.69,149.47Z"/><path class="cls-1" d="M113.89,77.86a68.2,68.2,0,0,0-5.25,12.85,70,70,0,0,0-12.8-5.37,90.82,90.82,0,0,1,4.3-15.15A90.33,90.33,0,0,1,113.89,77.86Z"/></g><path class="cls-1" d="M227.57,158.39c-5.47-2.27-6.74-5.56-6.82-8.17,0-1.18.25-1.6.59-1.6.5,0,1.09.67,1.43,1.26a5.79,5.79,0,0,0,4.72,2.36l.84-.08c5.23-.93,13.07-5.48,13.57-9.61V142c0-5.23-8.68-11.38-11.8-14.33a13.22,13.22,0,0,1-4.21-9.94,21.13,21.13,0,0,1,.93-6.07c2.27-8.34,16.85-16.94,21.49-16.94h.33a6,6,0,0,1,2.78,1.1,30,30,0,0,1,2.78-3.37,1.58,1.58,0,0,1,.68-.09c2.53,0,7.92,3.79,8.09,5.31v.08c0,1.69-6.66,8.6-9.44,13.4a7.06,7.06,0,0,0-1,3.12,3.24,3.24,0,0,0,.59,1.86.89.89,0,0,1,.17.67,1.23,1.23,0,0,1-1.27,1.18h-.16c-3.71-.67-5-6.24-5-9.94v-1c-6.74,1.86-12.64,8.18-12.64,14.33a8.87,8.87,0,0,0,2.11,5.82c4.46,5.39,13.4,8.76,14.32,17.1l.09.93c0,7.5-10.53,14.07-18.71,14.07A11.13,11.13,0,0,1,227.57,158.39Z"/><path class="cls-1" d="M259.18,151.14c-3.54-.59-4.72-3.2-4.72-6.74,0-6.82,4.3-16.77,4.3-21.23a3.37,3.37,0,0,0-.26-1.44c-.25-.67-.84-.76-1.77-1.09a.44.44,0,0,1-.33-.42c0-.59,1.09-1.52,2.94-1.52a8.27,8.27,0,0,1,2.28.42c3.54,1.52,4.64,4.3,4.64,7.42,0,5.47-3.54,12.13-3.54,14.83,0,.59.16,1,.59,1.18h.16c1.86,0,7.34-8.09,10-16.27.34-1.43.76-2.78,1.1-4,.42-1.52.93-2.87,1.26-4a2.06,2.06,0,0,1,1.69-1.26h.08c2.78,0,6.24,4.38,6.24,7.08a3.24,3.24,0,0,1-.17,1c-.84,2.11-4.89,12.81-4.89,19.21,0,2.78.76,4.72,2.78,4.89.68,0,.93.17.93.42,0,.59-1.18,1.35-2.95,1.35a6.31,6.31,0,0,1-2.11-.34c-4.46-1.34-5.81-6.06-5.81-11.54v-1c-3,6.23-7.33,13.23-11.88,13.23Z"/><path class="cls-1" d="M297.77,151.9c-9-.42-13.65-6.15-13.65-13.82a23.37,23.37,0,0,1,1.27-7.33c3.54-10.53,11.54-15.25,17.52-15.25,4.13,0,7.25,2.27,7.25,6.23a8.11,8.11,0,0,1-.08,1.35c-.59,1.77-1.52,2.28-2.36,2.28a2,2,0,0,1-1.94-1.52l.17-.34a1,1,0,0,0,.34-.92c0-1.1-.85-2.7-2.11-2.7a2.53,2.53,0,0,0-1.27.5c-4,3-8.84,13-8.84,20,0,3.54,1.18,6.4,4.46,7.16a11.71,11.71,0,0,0,2.36.25,9.52,9.52,0,0,0,7.67-4c.34-.59.76-.84,1-.84.42,0,.68.51.68,1.18l-.09.67c-1.09,4.72-6.57,7.08-11.63,7.08Z"/><path class="cls-1" d="M312.94,145.33a6.59,6.59,0,0,1-.59-3c0-8.09,8.85-22.75,15.09-25.28a8.66,8.66,0,0,1,2.95-.68c2.61,0,4,2,4.72,3.54a2.68,2.68,0,0,1,.17.76,1.77,1.77,0,0,1-.85,1.52c-3.87,2.44-12.39,16-12.39,20.9a1.63,1.63,0,0,0,.85,1.68,1.17,1.17,0,0,0,.59.09c4,0,10.78-15.42,11.88-18.12.76-3.29,1.69-6.32,2.44-8.6a2.06,2.06,0,0,1,1.69-1.26h.08c2.79,0,6.24,4.38,6.24,7.08a3,3,0,0,1-.17,1c-.84,2.11-4.89,12.81-4.89,19.21,0,2.78.76,4.72,2.78,4.89.68,0,.93.17.93.42,0,.59-1.18,1.35-2.95,1.35a6.22,6.22,0,0,1-2.1-.34c-4.13-1.26-5.65-5.39-5.82-10.36-3.62,5-8.34,11.12-9.69,11.46a5.23,5.23,0,0,1-1.77.25C319.43,151.9,315.47,150.47,312.94,145.33Z"/><path class="cls-1" d="M362.58,150.55c-4.89-1.51-6.4-6.23-6.4-11.12a32.19,32.19,0,0,1,1.51-9.44v-.42c0-2-2.95-3.2-2.95-3.2-1.35,4.63-3.28,13.31-5.81,19.21-1.35,3.12-3.12,5.23-5.65,5.23a6.55,6.55,0,0,1-3.37-1.1,1.22,1.22,0,0,1-.59-.93c0-.33,0-.92.42-1,5.48-.5,11.13-23.09,11.13-23.09-1.1-.84-1.61-2.61-1.61-4.72a17.63,17.63,0,0,1,2.2-8.09,3.67,3.67,0,0,1,3.37-2.1c2.78,0,5.9,2.52,6.15,3v.08c0,1-3.62,5.48-3.62,8.94l.08.84c.76,3.62,6.15,2.53,8.17,3.2.93.25,1.27,1.27,1.27,2.61,0,4.05-3.12,11.8-3.12,16.52,0,2.36.76,4,2.87,4.13.67,0,1,.17,1,.51,0,.5-1.18,1.26-2.95,1.26A6.28,6.28,0,0,1,362.58,150.55Z"/><path class="cls-1" d="M368.4,145.33a6.46,6.46,0,0,1-.59-3c0-8.09,8.84-22.75,15.08-25.28a8.71,8.71,0,0,1,2.95-.68,5.32,5.32,0,0,1,4.8,3.54l.17.68a1.81,1.81,0,0,1-.92,1.6c-3.8,2.44-12.31,16-12.31,20.9,0,.84.25,1.43.84,1.68a1.37,1.37,0,0,0,.59.09c3.21,0,8.09-9.78,10.54-15.17,2.11-9.86,6.4-19.3,8.34-28.74a20.25,20.25,0,0,0,.59-4.72v-.76a1.93,1.93,0,0,1,1.27-1.85,2.82,2.82,0,0,1,1.18-.17c2.94,0,6,3.46,6.32,6.49v.51c0,7-12,33.45-12,44.16,0,2.61.76,4.29,2.61,4.46.68,0,.93.17.93.42,0,.59-1.18,1.35-2.95,1.35a6.1,6.1,0,0,1-2-.34c-3.88-1.18-5.31-4.8-5.57-9.27-3.54,4.72-7.66,10-8.93,10.37a5.19,5.19,0,0,1-1.77.25C374.88,151.9,370.92,150.47,368.4,145.33Z"/><path class="cls-1" d="M407.25,150.55c-4.39-1.34-5.82-5.89-5.82-11.29,0-7.33,2.61-16.26,4.21-21.07a1.85,1.85,0,0,1,1.69-1.26h.09c2.69,0,6.15,4.38,6.15,7.08a3.24,3.24,0,0,1-.17,1c-.93,2.11-4.81,12.81-4.81,19.21,0,2.78.68,4.72,2.7,4.89.68,0,1,.17,1,.51,0,.5-1.18,1.26-2.95,1.26A6.22,6.22,0,0,1,407.25,150.55Zm6.06-33.2a14.34,14.34,0,0,1-4.63-3,2,2,0,0,1-.59-1.35c0-1.86.25-6.74,2.7-10a4.3,4.3,0,0,1,3.62-1.34,18.55,18.55,0,0,1,5.73,1.17c.59.17,1.1.34,1.1.93a4.48,4.48,0,0,1-.93,2.11,58.29,58.29,0,0,0-4.64,10.28,1.89,1.89,0,0,1-1.77,1.26Z"/><path class="cls-1" d="M434.21,151.73c-3.37-1.43-4.46-4.38-4.46-7.66,0-6.49,4.13-14.67,4.13-17.79,0-.67-.17-1.09-.59-1.26h-.17c-2.19,0-10.87,13.31-12.73,22.58a3.67,3.67,0,0,0,.51,1.35,2.08,2.08,0,0,1,.42,1.1c0,.59-.51.76-1.18.76a6.52,6.52,0,0,1-2.28-.51c-3.2-1.52-4.38-5.05-4.38-9.27a30.15,30.15,0,0,1,.25-3.79c.68-6,3.8-13.15,3.8-18.54v-.42a1.88,1.88,0,0,1,1.34-1.69,2.87,2.87,0,0,1,1.18-.17c2.95,0,5.82,3.46,6.07,6.49a15.65,15.65,0,0,1-1,4c-.42,1.52-1.35,4-2.19,6.83,3.71-7.42,9.44-17.36,13.91-17.36l.59.08c3.28.76,4.46,3.63,4.46,7.42,0,7.67-4.72,19-4.72,23.85a3.32,3.32,0,0,0,.26,1.43c.25.68.84.84,1.76,1.1a.42.42,0,0,1,.34.42c0,.59-1,1.52-2.95,1.52A6.65,6.65,0,0,1,434.21,151.73Z"/></svg>